<svg xmlns="http://www.w3.org/2000/svg" width="61.98" height="61.975" viewBox="0 0 61.98 61.975"><path d="M30,60h0l-4.325-4.325V52.314l-1.261,3.1-5.638,2.375-2.254-5.351L18.41,47.8,15,51.213H8.879V45.408l3.538-3.538L7.945,43.691,2.308,41.316l2.339-5.553,3.528-1.437H19.959L12.416,41.87,22.5,37.764,18.41,47.8l7.265-7.265V52.314L30.092,41.47,34.261,51.7V55.74L30,60Zm11.407-2.216h0L35.77,55.409,34.261,51.7V40.289L41.774,47.8,37.688,37.764l10.451,4.257-7.76-7.76H51.85L41.182,29.916,51.8,25.593H40.524l7.761-7.761,3.848-1.567,5.742,2.418-2.254,5.351L51.8,25.593h3.8L60,30l-4.261,4.26H51.85l3.687,1.5,2.338,5.553L52.238,43.69l-4.1-1.669L51.3,45.187v6.025H45.187L41.774,47.8l1.887,4.633-2.253,5.35ZM30.092,41.469v0l-1.548-3.8,1.548-1.548,1.549,1.548-1.547,3.8Zm-4.418-.934V36.47L22.5,37.764l1.4-3.438h1.778V36.47l2.043-.832.826,2.028-2.867,2.868Zm8.587-.248,0,0-2.619-2.62.826-2.028,1.795.731v3.918Zm3.426-2.523h0l-3.424-1.394V34.261h2l-.818-2.007,2.082-.848L36.118,30l1.525-1.526,3.54,1.441-3.659,1.49,2.853,2.853,0,0H36.26l1.426,3.5ZM8.175,34.326H4.325L0,30l4.106-4.106H9.127L4.562,24.035,2.308,18.684l5.743-2.418,4.218,1.718-3.39-3.39V8.787H15.11l2.938,2.939L16.437,7.77l2.339-5.554L24.52,4.635l1.374,3.377v11.56l2.621,2.62-.841,2.065h0l-1.778-.723V19.571l-7.846-7.846,4.2,10.323v0h0l-9.982-4.065,7.911,7.911H9.127L19,29.916,8.175,34.326Zm15.722,0H19.959l2.857-2.857L19,29.916l3.7-1.5h0L20.18,25.895h3.64L22.253,22.05l3.64,1.483v2.362H23.819l.719,1.767-1.841.749h0L24.286,30l-1.47,1.469,1.924.785L23.9,34.325Zm13.746-5.851h0l-2-.813.842-2.068H34.406V23.485l-1.894.771h0l-.841-2.065,2.737-2.737v4.031l3.524-1.436-1.444,3.543h4.037l-2.881,2.881Zm-7.551-4.706h0l-1.576-1.577,1.578-3.874,1.577,3.874-1.577,1.577Zm7.839-1.719v0l4.2-10.323-7.729,7.729V7.725L30.093,18.315v0l-4.2-10.3V4.107L30,0l4.406,4.406V7.725l1.258-3.09,5.743-2.419L43.746,7.77l-1.611,3.956,2.938-2.939H51.3v6.026l-3.02,3.019L37.933,22.049Z" transform="translate(0.99 0.99)" fill="none" stroke="#bd9d7e" stroke-miterlimit="10" stroke-width="1.4"/></svg>