<svg xmlns="http://www.w3.org/2000/svg" width="58" height="43.001" viewBox="0 0 58 43.001"><path d="M58,43H0V8.459H6.988V4.229H8.036A8.368,8.368,0,0,0,13.8,2.477l.277-.189A11.626,11.626,0,0,1,21.188,0a11.214,11.214,0,0,1,7.173,2.732l.639.5.64-.5A11.168,11.168,0,0,1,36.775,0a11.655,11.655,0,0,1,7.144,2.288l.277.188a8.367,8.367,0,0,0,5.767,1.753h1.049v4.23H58V43ZM2.1,10.574V40.885H55.9V10.574H51.012V36.656H49.964a13.525,13.525,0,0,1-7.18-1.9l-.252-.14a9.814,9.814,0,0,0-5.845-1.489c-2.811,0-4.052.576-6.99,3.245l-.7.637-.694-.634c-2.94-2.671-4.172-3.248-6.934-3.248h-.084a9.772,9.772,0,0,0-5.81,1.484l-.261.146a13.534,13.534,0,0,1-7.181,1.9H6.988V10.574ZM36.657,31.017H36.7a13.214,13.214,0,0,1,7.076,1.895,11.526,11.526,0,0,0,3.914,1.351l1.221.205V6.29l-.9-.132a12.2,12.2,0,0,1-5.268-2.1l-.314-.215a8.152,8.152,0,0,0-5.625-1.727c-2.883,0-4.213.607-7.117,3.245L29,6l-.694-.635c-2.907-2.64-4.228-3.247-7.068-3.247a8.208,8.208,0,0,0-5.676,1.727l-.315.215a12.2,12.2,0,0,1-5.267,2.1l-.9.132V34.467l1.22-.205a11.543,11.543,0,0,0,3.915-1.351,13.192,13.192,0,0,1,7.06-1.895,10.9,10.9,0,0,1,7.078,2.73l.642.5.643-.5A10.827,10.827,0,0,1,36.657,31.017Z" fill="#bd9d7e"/></svg>