<svg xmlns="http://www.w3.org/2000/svg" width="51" height="55" viewBox="0 0 51 55"><path d="M36.514,50.814H0V48.725H4.918V9.743H2.108V7.655H8.43V2.088H7.021V0H39.345V2.088h-1.41V7.655h6.323V9.743h-2.81v9.851A10.87,10.87,0,0,1,51,30.322c0,3.772-3.37,11.863-4.4,14.253C42.092,55,40.628,55,40.077,55,39.686,55,38.769,55,36.514,50.814ZM31.262,30.322c0,2.918,2.492,9.273,3.563,11.869,1.95,4.724,4.158,9.12,5.251,10.453,1.092-1.33,3.3-5.727,5.252-10.453,1.071-2.6,3.563-8.951,3.564-11.869a8.815,8.815,0,0,0-17.63,0Zm-13,3.785H28.8V48.725h6.645c-.59-1.212-1.226-2.609-1.891-4.15-1.033-2.39-4.4-10.481-4.4-14.253a10.643,10.643,0,0,1,2.006-6.234,10.935,10.935,0,0,1,5.122-3.9H35.125V14.967a1.052,1.052,0,0,0-1.057-1.046h-.7a1.052,1.052,0,0,0-1.055,1.046v5.219H30.208V14.967a3.152,3.152,0,0,1,3.163-3.134h.7a3.153,3.153,0,0,1,3.164,3.134v4.917a10.9,10.9,0,0,1,2.108-.348V9.743H7.025V48.725h11.24V34.108h0Zm2.106,14.618H26.7V36.2H20.372ZM10.537,7.655h25.29V2.088H10.537Zm3.513,35.5V37.939a1.052,1.052,0,0,0-1.056-1.047h-.7a1.052,1.052,0,0,0-1.056,1.047v5.218H9.132V37.939A3.152,3.152,0,0,1,12.295,34.8h.7a3.152,3.152,0,0,1,3.163,3.135v5.218ZM34.91,30.323a5.167,5.167,0,1,1,5.167,5.119A5.149,5.149,0,0,1,34.91,30.323Zm2.108,0a3.059,3.059,0,1,0,3.059-3.03A3.049,3.049,0,0,0,37.018,30.322Zm-12.43,1V26.1a1.052,1.052,0,0,0-1.056-1.046h-.7A1.052,1.052,0,0,0,21.778,26.1v5.219H19.67V26.1a3.154,3.154,0,0,1,3.163-3.135h.7A3.152,3.152,0,0,1,26.695,26.1v5.219Zm-10.538,0V26.1a1.052,1.052,0,0,0-1.056-1.046h-.7A1.052,1.052,0,0,0,11.239,26.1v5.219H9.132V26.1a3.153,3.153,0,0,1,3.163-3.135h.7A3.152,3.152,0,0,1,16.157,26.1v5.219ZM24.588,20.186V14.967a1.052,1.052,0,0,0-1.056-1.046h-.7a1.052,1.052,0,0,0-1.055,1.046v5.219H19.67V14.967a3.153,3.153,0,0,1,3.163-3.134h.7a3.151,3.151,0,0,1,3.163,3.134v5.219Zm-10.538,0V14.967a1.052,1.052,0,0,0-1.056-1.046h-.7a1.052,1.052,0,0,0-1.056,1.046v5.219H9.132V14.967a3.152,3.152,0,0,1,3.163-3.134h.7a3.152,3.152,0,0,1,3.163,3.134v5.219Z" fill="#bd9d7e"/></svg>