<svg xmlns="http://www.w3.org/2000/svg" width="59" height="52" viewBox="0 0 59 52"><path d="M10.57,52a.624.624,0,0,1-.621-.625V49.184H8.635a8.544,8.544,0,0,1-6.1-2.555A8.676,8.676,0,0,1,0,40.484V32.408a.625.625,0,0,1,.621-.626H25.839V21.9H19.787a4.3,4.3,0,0,1-3.074-1.288,4.37,4.37,0,0,1-1.278-3.1V13.752a.625.625,0,0,1,.621-.626H28.879V4.733a3.483,3.483,0,0,0-1.015-2.458,3.43,3.43,0,0,0-2.44-1.023h0a3.433,3.433,0,0,0-2.44,1.023,3.482,3.482,0,0,0-1.014,2.458V7.1a.621.621,0,1,1-1.243,0V4.733a4.73,4.73,0,0,1,1.38-3.343A4.66,4.66,0,0,1,25.423,0h0a4.663,4.663,0,0,1,3.318,1.391,4.76,4.76,0,0,1,.758,1,4.757,4.757,0,0,1,.759-1,4.654,4.654,0,0,1,6.636,0,4.73,4.73,0,0,1,1.38,3.343V7.1a.621.621,0,1,1-1.242,0V4.733a3.48,3.48,0,0,0-1.016-2.458,3.42,3.42,0,0,0-4.88,0,3.482,3.482,0,0,0-1.014,2.458v8.392H42.944a.624.624,0,0,1,.62.626v3.759a4.369,4.369,0,0,1-1.277,3.1A4.3,4.3,0,0,1,39.212,21.9H33.161v9.886H58.379a.625.625,0,0,1,.621.626v8.076a8.679,8.679,0,0,1-2.536,6.145,8.544,8.544,0,0,1-6.1,2.555H49.051v2.191A.624.624,0,0,1,48.43,52Zm.621-1.252H47.81V49.184H11.191ZM1.242,40.484a7.422,7.422,0,0,0,2.173,5.26,7.307,7.307,0,0,0,5.22,2.188h41.73a7.314,7.314,0,0,0,5.221-2.188A7.458,7.458,0,0,0,57.393,42.8H14.731a.626.626,0,0,1,0-1.252H57.683a7.538,7.538,0,0,0,.075-1.06v-7.45H1.242Zm30.677-8.7V21.9H27.081v9.886Zm6.632-11.137V15.872a.621.621,0,1,1,1.243,0v4.717a3.142,3.142,0,0,0,2.527-3.078V14.378H16.678v3.134a3.119,3.119,0,0,0,.914,2.211,3.086,3.086,0,0,0,1.614.866V15.872a.621.621,0,1,1,1.242,0v4.773h2.627V15.872a.621.621,0,1,1,1.242,0v4.773h2.627V15.872a.621.621,0,1,1,1.243,0v4.773h2.627V15.872a.621.621,0,1,1,1.242,0v4.773h2.626V15.872a.621.621,0,1,1,1.243,0v4.773Zm-4.382-8.517V10.7a.621.621,0,1,1,1.242,0v1.427a.621.621,0,1,1-1.242,0Zm-10.639,0V10.7a.621.621,0,1,1,1.243,0v1.427a.621.621,0,1,1-1.243,0Zm13.783-1.045V9.655a.621.621,0,1,1,1.242,0v1.427a.621.621,0,1,1-1.242,0Zm-16.925,0V9.655a.621.621,0,1,1,1.242,0v1.427a.621.621,0,1,1-1.242,0ZM35.033,8.8V7.376a.621.621,0,1,1,1.242,0V8.8a.621.621,0,1,1-1.242,0Zm-12.366,0V7.376a.621.621,0,1,1,1.242,0V8.8a.621.621,0,1,1-1.242,0Z" fill="#bd9d7e"/></svg>