<svg xmlns="http://www.w3.org/2000/svg" width="63" height="50" viewBox="0 0 63 50"><path d="M28.661,50A3.365,3.365,0,0,1,25.3,46.636v-10.1h-.366a3.365,3.365,0,0,1-3.359-3.364V22.73a6.988,6.988,0,0,1,6.966-6.977h5.91a6.98,6.98,0,0,1,6.967,6.977V33.177a3.372,3.372,0,0,1-3.359,3.364H37.7v10.1a3.367,3.367,0,0,1-2.055,3.1,3.307,3.307,0,0,1-1.3.265ZM24.208,22.73V33.177a.74.74,0,0,0,.73.731h3V46.636a.74.74,0,0,0,.729.731h5.676a.741.741,0,0,0,.73-.731V33.908h3a.74.74,0,0,0,.729-.731l0-10.446a4.346,4.346,0,0,0-4.338-4.343h-5.91A4.346,4.346,0,0,0,24.208,22.73ZM16.75,47.957a3.118,3.118,0,0,1-3.106-3.112V35.506H13.3a3.079,3.079,0,0,1-1.733-.534A3.131,3.131,0,0,1,10.2,32.394V22.73a6.4,6.4,0,0,1,.292-1.913,6.294,6.294,0,0,1,.218-.593,6.52,6.52,0,0,1,1.384-2.052c.147-.146.3-.285.459-.417a6.405,6.405,0,0,1,4.093-1.479h4.425a9.916,9.916,0,0,0-1.547,2.435H16.644a4.02,4.02,0,0,0-4.012,4.018v9.664a.684.684,0,0,0,.675.676h2.77V44.845a.684.684,0,0,0,.675.676H22a.651.651,0,0,0,.382-.139v1.255a6.326,6.326,0,0,0,.129,1.268,3.1,3.1,0,0,1-.513.052Zm24.246,0a3.116,3.116,0,0,1-.512-.052,6.268,6.268,0,0,0,.129-1.268V45.382a.655.655,0,0,0,.384.14h5.252a.685.685,0,0,0,.675-.676V33.07h2.77a.685.685,0,0,0,.675-.676V22.73a4.02,4.02,0,0,0-4.012-4.018H43.478a9.916,9.916,0,0,0-1.547-2.435h4.425a6.405,6.405,0,0,1,4.093,1.479c.16.131.312.27.459.417a6.52,6.52,0,0,1,1.384,2.052A6.418,6.418,0,0,1,52.8,22.73v9.664a3.119,3.119,0,0,1-3.109,3.111h-.338v9.339a3.122,3.122,0,0,1-1.9,2.866,3.079,3.079,0,0,1-1.206.246Zm11.292-1.7c-.063,0-.123-.014-.185-.019a6.056,6.056,0,0,0,.167-1.391v-.8c.006,0,.012,0,.018,0h4.765a.622.622,0,0,0,.612-.614V32.747H60.18a.622.622,0,0,0,.613-.614V23.364a3.648,3.648,0,0,0-3.641-3.646h-1.94a9.3,9.3,0,0,0-1.086-2.21h3.027A5.869,5.869,0,0,1,63,23.364v8.769a2.826,2.826,0,0,1-2.82,2.823h-.307v8.476a2.821,2.821,0,0,1-2.82,2.823Zm-46.343,0a2.794,2.794,0,0,1-1.094-.222,2.835,2.835,0,0,1-1.724-2.6V34.956H2.819A2.829,2.829,0,0,1,0,32.133V23.364a5.868,5.868,0,0,1,5.847-5.856H8.874a9.383,9.383,0,0,0-1.086,2.21H5.847a3.647,3.647,0,0,0-3.641,3.646v8.768a.621.621,0,0,0,.612.614H5.333V43.43a.621.621,0,0,0,.612.614h4.766c.006,0,.011,0,.017,0v.8a6,6,0,0,0,.168,1.391c-.062,0-.122.019-.185.019Zm16.44-.873h0ZM52.121,15.359a9.32,9.32,0,0,0-1.292-.86c-.071-.063-.142-.125-.21-.191a9.409,9.409,0,0,0,1.288-1.876,3.629,3.629,0,1,0,.976-5.444,9.284,9.284,0,0,0-.554-2.209,5.8,5.8,0,0,1,2.344-.5,5.934,5.934,0,0,1,.6.031,5.8,5.8,0,0,1,2.181.673,5.851,5.851,0,0,1,0,10.262,5.725,5.725,0,0,1-1.044.442,5.788,5.788,0,0,1-1.137.232,5.934,5.934,0,0,1-.6.031A5.788,5.788,0,0,1,52.121,15.359ZM4.69,14.673a5.829,5.829,0,0,1,5.981-9.894,9.277,9.277,0,0,0-.554,2.208,3.57,3.57,0,0,0-1.789-.493,3.625,3.625,0,1,0,2.765,5.936,9.387,9.387,0,0,0,1.289,1.876c-.068.066-.139.129-.211.192a9.371,9.371,0,0,0-1.292.861,5.787,5.787,0,0,1-6.189-.686Zm36.435-.613q-.289-.123-.562-.271a6.511,6.511,0,0,1-.614-.385,6.4,6.4,0,0,1-.61-.49,9.881,9.881,0,0,0,1.269-2.194,3.983,3.983,0,1,0,3.015-6.582,3.941,3.941,0,0,0-2.458.874,9.788,9.788,0,0,0-.823-2.4A6.425,6.425,0,0,1,49.27,11.2,6.464,6.464,0,0,1,47.3,13.4a6.377,6.377,0,0,1-.614.385c-.182.1-.37.189-.562.271a6.436,6.436,0,0,1-5,0Zm-24.246,0a6.2,6.2,0,0,1-.562-.271A6.51,6.51,0,0,1,15.7,13.4,6.423,6.423,0,0,1,22.66,2.613a9.786,9.786,0,0,0-.823,2.4,3.951,3.951,0,0,0-2.46-.873,4,4,0,1,0,3.015,6.581,9.826,9.826,0,0,0,1.269,2.194,6.514,6.514,0,0,1-1.224.875c-.182.1-.37.19-.562.271a6.426,6.426,0,0,1-5,0Zm10.989-1.192a6.952,6.952,0,0,1-2.122-9.8,6.981,6.981,0,0,1,.848-1.029A6.94,6.94,0,0,1,38.441,6.952a6.914,6.914,0,0,1-2.032,4.916,7,7,0,0,1-1.275,1,6.779,6.779,0,0,1-.931.49,6.915,6.915,0,0,1-6.334-.49Zm-.68-5.916A4.312,4.312,0,1,0,31.5,2.633,4.32,4.32,0,0,0,27.188,6.952Z" fill="#bd9d7e"/></svg>