<svg xmlns="http://www.w3.org/2000/svg" width="54" height="44" viewBox="0 0 54 44"><path d="M53.182,44H.818A.818.818,0,0,1,0,43.185V17.111A.817.817,0,0,1,.818,16.3H26.182V.814A.817.817,0,0,1,27,0H53.182A.817.817,0,0,1,54,.814v42.37A.818.818,0,0,1,53.182,44ZM28.636,27.7h9a.818.818,0,0,1,.818.815V42.37H52.363V38.3H44.182a.817.817,0,0,1-.818-.814V28.518a.818.818,0,0,1,.818-.815h8.181V17.925H35.181a.817.817,0,0,1-.817-.814V8.148a.817.817,0,0,1,.817-.814H52.363v-5.7H27.818V17.111a.817.817,0,0,1-.818.814H1.636V42.37h4.09V28.518a.818.818,0,0,1,.818-.815H22.09a.818.818,0,0,1,.818.815V42.37h4.91V28.518A.818.818,0,0,1,28.636,27.7Zm.818,1.63V42.37h7.364V29.333ZM7.364,39.11v3.26H21.272V39.11Zm0-4.889v3.26H21.272v-3.26ZM45,29.334v7.333h7.364V29.334Zm-37.635,0v3.259H21.272V29.333ZM36,8.963V16.3H52.363V8.963Z" fill="#bd9d7e"/></svg>