<svg xmlns="http://www.w3.org/2000/svg" width="67.001" height="61" viewBox="0 0 67.001 61"><path d="M.694,61A.705.705,0,0,1,.2,60.8a.684.684,0,0,1,0-.974L12.814,47.376a27.839,27.839,0,0,1,0-38.548,28.269,28.269,0,0,1,9.623-6.614A28.79,28.79,0,0,1,53.055,7.652a27.839,27.839,0,0,1,1.191,39.724L66.859,59.827a.691.691,0,0,1,0,.834.71.71,0,0,1-.986.14L53.259,48.35a28.66,28.66,0,0,1-39.459,0L1.188,60.8A.707.707,0,0,1,.694,61ZM20.777,41.464l-5.99,5.912a27.138,27.138,0,0,0,37.486,0L48.539,43.69l-4.228,4.173a.687.687,0,0,1-.986,0L40.506,45.15a18.719,18.719,0,0,1-19.73-3.686ZM33.57,9.882h0A18.623,18.623,0,0,1,46.04,14.647,18.131,18.131,0,0,1,47.271,40.49l1.761,1.739L53.259,46.4a26.427,26.427,0,0,0,7.329-18.333A26.929,26.929,0,0,0,33.532,1.413h-.057A27.055,27.055,0,0,0,14.359,9.275,26.465,26.465,0,0,0,13.8,46.4l6.06-5.912a18.123,18.123,0,0,1,0-24.628A18.387,18.387,0,0,1,26.2,11.385,18.674,18.674,0,0,1,33.57,9.882ZM28.034,23.448l-2.819,4.591L29.3,32.073,43.747,46.4l3.734-3.686ZM24.3,37.916h0L21.833,40.49a17.3,17.3,0,0,0,17.616,3.548l-7.187-7.026-.493.488a5.567,5.567,0,0,1-3.928,1.6h-.088A5.641,5.641,0,0,1,24.3,37.916ZM42.268,25.465a.7.7,0,0,1,.423.139.69.69,0,0,1,.14.974l-4.862,4.8,8.314,8.069a16.7,16.7,0,0,0,0-22.633A17.277,17.277,0,0,0,22.1,15.574a16.752,16.752,0,0,0-1.255,23.873l2.677-2.435a5.516,5.516,0,0,1,.423-7.373l.493-.487-.493-.487a.691.691,0,0,1-.141-.834l3.523-5.774a.7.7,0,0,1,.493-.348l.058,0a.709.709,0,0,1,.505.211l1.621,1.6,4.862-4.8a.755.755,0,0,1,1.057,0,.731.731,0,0,1,0,1.043l-4.863,4.8L33.53,27l4.862-4.8a.712.712,0,0,1,.845,0,.69.69,0,0,1,.141.974l-4.862,4.8L36.983,30.4l4.862-4.8A.708.708,0,0,1,42.268,25.465ZM28.809,33.534l-3.452,3.408a4.162,4.162,0,0,0,2.415.765h.051a4.224,4.224,0,0,0,2.959-1.252l.493-.487-2.466-2.435Zm-3.523-3.408-.493.487a4.124,4.124,0,0,0-.423,5.356l3.382-3.408-2.466-2.435Z" transform="translate(0.002)" fill="#bd9d7e"/></svg>