<svg xmlns="http://www.w3.org/2000/svg" width="44" height="44" viewBox="0 0 44 44"><path d="M41.33,44H2.673A2.679,2.679,0,0,1,0,41.344V34.46a2.306,2.306,0,0,1,.125-.778l.125-.3L4.776,21.912V10.373a3.322,3.322,0,0,1,2.763-3.31A18.3,18.3,0,0,1,22,0a18.557,18.557,0,0,1,7.943,1.794,18.068,18.068,0,0,1,6.541,5.269,3.314,3.314,0,0,1,2.745,3.31V22l4.4,11.116v.017A2.4,2.4,0,0,1,44,34.46v6.892A2.664,2.664,0,0,1,41.33,44ZM2.673,33.575a.9.9,0,0,0-.766.442l-.106.265V34.3a.478.478,0,0,0-.019.159v6.884a.894.894,0,0,0,.891.886H41.344a.878.878,0,0,0,.623-.265.868.868,0,0,0,.25-.621V34.46a.32.32,0,0,0-.017-.124h-.019L42,33.876a.93.93,0,0,0-.678-.3Zm3.6-10.619-1.5,3.805-2,5.044h38.4l-1.96-4.955-1.533-3.893H6.273Zm23.9-4.323-5.249,2.552H35.419l-5.243-2.552Zm-16.338,0h0L8.584,21.186H19.092l-5.254-2.554ZM22.9,15.091V20.2l5.251-2.553Zm-16.341,0V20.2l5.253-2.554Zm30.883.008L32.2,17.649,37.441,20.2Zm-16.323-.009-5.253,2.555L21.118,20.2Zm3.807-.985h0l5.251,2.555,5.257-2.556Zm-16.339,0h0l5.252,2.553,5.252-2.554ZM8.02,8.8a1.523,1.523,0,0,0-1.462,1.575v1.965H37.442V10.373A1.515,1.515,0,0,0,36,8.8h-.445l-.267-.373a16.57,16.57,0,0,0-26.553,0L8.465,8.8Z" transform="translate(0 0)" fill="#bd9d7e"/></svg>