<svg xmlns="http://www.w3.org/2000/svg" width="50" height="50" viewBox="0 0 50 50"><path d="M26.775,50a.625.625,0,0,1-.625-.625V47.21l-1.529.657a.632.632,0,0,1-.247.058.241.241,0,0,1-.067-.012l-.04-.01-.023,0a.429.429,0,0,1-.066-.014l-.023,0a.078.078,0,0,1-.028-.006L22.7,47.26v2.115a.626.626,0,0,1-.625.625h-20a.625.625,0,0,1-.625-.625V33.593A9.665,9.665,0,0,1,5.98,25.371l3.576-2.256a.615.615,0,0,1,.33-.1.64.64,0,0,1,.155.02.624.624,0,0,1,.391.3,4.579,4.579,0,0,0,7.987,0,.618.618,0,0,1,.392-.3.633.633,0,0,1,.154-.02.621.621,0,0,1,.332.1l3.576,2.256c.229.145.443.292.634.439a8.955,8.955,0,0,1,.913.788A9.618,9.618,0,0,1,25.98,25.37l3.575-2.255a.614.614,0,0,1,.33-.1.64.64,0,0,1,.155.02.627.627,0,0,1,.392.3,4.58,4.58,0,0,0,7.987,0,.621.621,0,0,1,.391-.3.635.635,0,0,1,.155-.02.618.618,0,0,1,.331.1l3.576,2.256c.223.14.437.289.634.439a9.289,9.289,0,0,1,1.542,1.441l.014.014.013.014A9.5,9.5,0,0,1,46.494,29.5a.453.453,0,0,1,.019.049,9.634,9.634,0,0,1,.887,4.049V49.375a.626.626,0,0,1-.626.625Zm15.15-1.25H46.15V43.124H41.925ZM27.4,46.672v2.077H40.676V35.625a.625.625,0,1,1,1.249,0v6.25H46.15V33.593a8.393,8.393,0,0,0-.789-3.564.38.38,0,0,1-.024-.058,8.2,8.2,0,0,0-1.193-1.857l-.03-.031a8.142,8.142,0,0,0-1.358-1.274c-.182-.137-.366-.265-.549-.38L39.153,24.5a5.825,5.825,0,0,1-9.455,0l-3.051,1.926a8.3,8.3,0,0,0-1.377,1.085c.012.015.023.031.034.048s.014.021.021.03c.181.229.349.463.5.695.007.012.014.023.023.034l.019.026c.157.247.307.51.458.806.006.013.014.024.021.036l.018.031,4.171-1.795.012,0,.009,0c.028-.01.056-.017.084-.024l.013,0,.051-.01c.021,0,.041,0,.063,0h.052l.037,0a.545.545,0,0,1,.067.014l.013,0c.023.006.049.013.073.022l.009,0,.013,0,6.406,2.757a.623.623,0,0,1,.378.573V47.293a.625.625,0,0,1-.281.523.679.679,0,0,1-.153.071.247.247,0,0,1-.033.007l-.027.005a.6.6,0,0,1-.105.015l-.012,0-.014,0-.014,0-.014,0a.606.606,0,0,1-.22-.046l-6.159-2.65ZM8.175,35.625V48.749H21.451V46.722l-3.482-1.5-6.159,2.65a.572.572,0,0,1-.223.046l-.01,0-.014,0h-.012l-.011,0a.653.653,0,0,1-.114-.017l-.023,0a.149.149,0,0,1-.029-.006.6.6,0,0,1-.155-.073.619.619,0,0,1-.281-.521V30.756a.623.623,0,0,1,.378-.573l6.406-2.757.012,0,.01,0c.023-.008.049-.015.082-.023a.538.538,0,0,1,.064-.013c.022,0,.042,0,.064,0h.052l.037,0c.027,0,.054.01.081.016s.047.013.07.022l.009,0,.013,0,6.159,2.65.834-.359,0-.008a.144.144,0,0,0-.009-.021,8.421,8.421,0,0,0-.494-.828c-.037-.054-.076-.111-.129-.184a8.316,8.316,0,0,0-.61-.769,8.486,8.486,0,0,0-1.208-1.1c-.179-.136-.364-.264-.548-.38L19.153,24.5a5.825,5.825,0,0,1-9.455,0L6.646,26.429A8.42,8.42,0,0,0,2.7,33.593v8.281H6.926v-6.25a.625.625,0,1,1,1.249,0ZM2.7,48.749H6.926V43.124H2.7Zm15.894-4.617,5.156,2.219V31.169l-5.156-2.219ZM12.188,31.168V46.35l5.156-2.218V28.949ZM26.3,30.612l-1.267.545L25,31.169V46.345l5.156-2.219V28.949l-.02.008L26.3,30.612h0Zm5.11,13.514,5.156,2.218V31.168l-5.156-2.219ZM30.292,21.434c-.067-.046-.13-.091-.192-.136l-.067-.049H23.75a.624.624,0,0,1-.574-.378c-.074-.172-1.778-4.28,1.387-10.247h-.789a10.628,10.628,0,0,1-.2,1.339.558.558,0,0,1-.026.089c-.036.175-.086.379-.14.589a28.226,28.226,0,0,1-1.931,5.389,8.476,8.476,0,0,1-2.918,3.406,7.394,7.394,0,0,1-8.267,0,8.4,8.4,0,0,1-2.921-3.417A28.5,28.5,0,0,1,5.3,12.064a9.967,9.967,0,0,1-.214-1.438h-2.9a2.188,2.188,0,1,1,0-4.376H5.735A10.127,10.127,0,0,1,9.217,1.717a8.746,8.746,0,0,1,10.409,0A10.17,10.17,0,0,1,23.115,6.25h2.62a10.127,10.127,0,0,1,3.482-4.532,8.746,8.746,0,0,1,10.409,0A10.17,10.17,0,0,1,43.115,6.25h4.7a2.188,2.188,0,1,1,0,4.376H44.192c2.568,4.833,1.931,8.454,1.539,9.786a4.081,4.081,0,0,1-.157.46A.627.627,0,0,1,45,21.25H38.823l-.013.009c-.081.059-.165.121-.247.176a7.393,7.393,0,0,1-8.271,0ZM6.633,12.213A27.23,27.23,0,0,0,8.49,17.456a7.214,7.214,0,0,0,2.494,2.936,6.239,6.239,0,0,0,6.886,0,7.219,7.219,0,0,0,2.479-2.9,27.063,27.063,0,0,0,1.736-4.725c-.028-.021-.058-.044-.086-.068s-.048-.039-.072-.057q-.1-.077-.205-.162c-.137-.11-.284-.238-.448-.39l-.038-.033c-.048-.043-.094-.085-.143-.13-.233-.224-.445-.44-.648-.661-.016-.017-.032-.036-.048-.055l-.037-.042c-.181-.2-.333-.371-.479-.544h-7A34.324,34.324,0,0,1,6.633,12.213ZM28.49,17.456a7.311,7.311,0,0,0,2.124,2.675c.1.077.22.159.376.265a6.243,6.243,0,0,0,6.88,0c.124-.084.257-.177.374-.265a7.255,7.255,0,0,0,2.106-2.638c.186-.392.368-.8.539-1.206.029-.07.056-.14.084-.211s.044-.114.067-.171c.115-.285.227-.565.329-.85q.051-.146.1-.294l.058-.173c.081-.234.175-.51.259-.785.041-.132.079-.267.116-.4l.032-.112c.05-.177.1-.356.146-.531-.029-.022-.059-.046-.087-.069s-.041-.034-.062-.05q-.1-.078-.211-.165c-.131-.107-.276-.233-.444-.385l-.081-.073-.1-.094c-.226-.216-.437-.432-.648-.661L40.4,11.22c-.014-.016-.028-.033-.042-.049-.169-.188-.323-.359-.481-.546h-3.3a6.5,6.5,0,0,1-5.684,2.74,13.485,13.485,0,0,1-4.158-.731A27.288,27.288,0,0,0,28.49,17.456Zm15.039-5.322-.005.025c-.032.138-.068.288-.105.443,0,.012-.007.023-.01.036v.005a28.218,28.218,0,0,1-1.931,5.388,8.939,8.939,0,0,1-.545.97c-.038.06-.081.118-.122.174l-.074.1c-.166.239-.311.429-.455.6-.015.018-.03.038-.044.058a.592.592,0,0,1-.046.06H44.13l.474-.212a11.876,11.876,0,0,0-1.069-7.679ZM24.2,20h4.459c-.017-.021-.033-.043-.049-.065s-.031-.042-.047-.062c-.167-.2-.319-.409-.444-.588-.024-.035-.05-.069-.075-.1-.046-.062-.092-.126-.134-.192a8.6,8.6,0,0,1-.542-.972,28.532,28.532,0,0,1-2.07-5.954l-.006-.027c0-.023-.01-.046-.015-.068A11.739,11.739,0,0,0,24.2,20Zm2.142-9.3c0,.029,0,.059.006.087.007.061.015.122.024.183.005.041.014.083.022.122s.012.062.017.093a12.277,12.277,0,0,0,4.451.964,5.558,5.558,0,0,0,4.093-1.524H26.339C26.342,10.651,26.343,10.675,26.345,10.7Zm-4.763-.05.015.015c.141.147.266.27.378.378l.044.041c.011.008.021.018.031.027.105.1.207.19.3.271l.028.023.028.023c.052-.265.094-.535.122-.8h-.97A.3.3,0,0,1,21.582,10.65Zm20,0,.019.02c.131.136.258.264.379.378.014.014.03.028.045.041l.032.029c.1.1.2.185.3.268l.051.042c.011-.059.022-.12.031-.178l.014-.083.007-.046c.02-.122.041-.246.054-.37,0-.02,0-.041.005-.06s0-.041,0-.061h-.959ZM6.37,10.937l.007.05c.415-.064,1.09-.177,1.946-.361H6.331C6.341,10.73,6.356,10.835,6.37,10.937ZM29.8,7.52a.076.076,0,0,0,.007.022,2.213,2.213,0,0,1,.1.283c.005.019.012.037.018.055a.824.824,0,0,1,.027.092,2.1,2.1,0,0,1,0,.931.757.757,0,0,1-.027.091c-.006.019-.013.037-.018.056a2.213,2.213,0,0,1-.1.283.114.114,0,0,0-.007.021.152.152,0,0,1-.007.022H47.813a.938.938,0,1,0,0-1.876H29.789A.188.188,0,0,1,29.8,7.52ZM1.525,7.773a.939.939,0,0,0,.663,1.6H27.813a.938.938,0,0,0,0-1.876H2.188A.938.938,0,0,0,1.525,7.773ZM27.084,6.25h14.68a8.25,8.25,0,0,0-7.339-5A8.236,8.236,0,0,0,27.084,6.25Zm-20,0H21.764a8.252,8.252,0,0,0-7.339-5A8.234,8.234,0,0,0,7.085,6.25Z" fill="#bd9d7e"/></svg>